HIERARCHY
ROOT Hips
{
	OFFSET 0.000000 8.830580 0.000000
	CHANNELS 6 Xposition Yposition Zposition Zrotation Yrotation Xrotation 
	JOINT Spine
	{
		OFFSET 0.000000 0.010000 0.000000
		CHANNELS 3 Zrotation Yrotation Xrotation
		JOINT Spine1
		{
			OFFSET 0.000000 2.459130 0.000000
			CHANNELS 3 Zrotation Yrotation Xrotation
			JOINT Neck
			{
				OFFSET 0.000000 2.484630 0.000000
				CHANNELS 3 Zrotation Yrotation Xrotation
				JOINT Head_virtual
				{
					OFFSET 0.000000 0.000000 0.000000
					CHANNELS 3 Zrotation Yrotation Xrotation
					JOINT Head
					{
						OFFSET 0.000000 0.927525 0.000000
						CHANNELS 3 Zrotation Yrotation Xrotation
						End Site
						{
							OFFSET 0.000000 0.000000 0.000000
						}
					}
				}
				JOINT LeftUpArm_virtual
				{
					OFFSET 0.000000 0.000000 0.000000
					CHANNELS 3 Zrotation Yrotation Xrotation
					JOINT LeftUpArm
					{
						OFFSET 1.248820 0.000000 0.000000
						CHANNELS 3 Zrotation Yrotation Xrotation
						JOINT LeftForeArm
						{
							OFFSET 2.597580 0.000000 0.000000
							CHANNELS 3 Zrotation Yrotation Xrotation
							JOINT LeftHand
							{
								OFFSET 2.455420 0.000000 0.000000
								CHANNELS 3 Zrotation Yrotation Xrotation
								End Site
								{
									OFFSET 0.000000 0.000000 0.000000
								}
							}
						}
					}
				}
				JOINT RightUpArm_virtual
				{
					OFFSET -0.000000 -0.000000 -0.000000
					CHANNELS 3 Zrotation Yrotation Xrotation
					JOINT RightUpArm
					{
						OFFSET -1.248820 -0.000000 -0.000000
						CHANNELS 3 Zrotation Yrotation Xrotation
						JOINT RightForeArm
						{
							OFFSET -2.597580 -0.000000 -0.000000
							CHANNELS 3 Zrotation Yrotation Xrotation
							JOINT RightHand
							{
								OFFSET -2.455420 -0.000000 -0.000000
								CHANNELS 3 Zrotation Yrotation Xrotation
								End Site
								{
									OFFSET 0.000000 0.000000 0.000000
								}
							}
						}
					}
				}
			}
		}
	}
	JOINT LeftUpLeg
	{
		OFFSET 1.271939 0.000000 0.000000
		CHANNELS 3 Zrotation Yrotation Xrotation
		JOINT LeftLowLeg
		{
			OFFSET 0.000000 -4.342910 0.000000
			CHANNELS 3 Zrotation Yrotation Xrotation
			JOINT LeftFoot
			{
				OFFSET 0.000000 -4.487670 0.000000
				CHANNELS 3 Zrotation Yrotation Xrotation
				JOINT LeftToeBase
				{
					OFFSET 0.000000 0.000000 1.515070
					CHANNELS 3 Zrotation Yrotation Xrotation
					End Site
					{
						OFFSET 0.000000 0.000000 0.000000
					}
				}
			}
		}
	}
	JOINT RightUpLeg
	{
		OFFSET -1.271939 0.000000 0.000000
		CHANNELS 3 Zrotation Yrotation Xrotation
		JOINT RightLowLeg
		{
			OFFSET 0.000000 -4.342910 0.000000
			CHANNELS 3 Zrotation Yrotation Xrotation
			JOINT RightFoot
			{
				OFFSET 0.000000 -4.487670 0.000000
				CHANNELS 3 Zrotation Yrotation Xrotation
				JOINT RightToeBase
				{
					OFFSET 0.000000 0.000000 1.515070
					CHANNELS 3 Zrotation Yrotation Xrotation
					End Site
					{
						OFFSET 0.000000 0.000000 0.000000
					}
				}
			}
		}
	}
}
MOTION
Frames: 15
Frame Time: 0.041667
-18.301357 9.122746 44.015982 -173.440655 5.545080 -177.465903 -2.761452 -2.106950 -5.036604 15.732080 -1.833587 8.543928 0.000000 0.000000 0.000000 -14.758999 -7.484720 20.615873 16.330934 9.669186 -82.543909 -37.425301 5.921540 8.263030 -29.295500 1.816280 22.307899 -180.000000 -89.637199 180.000000 14.601000 23.496599 49.820801 25.249500 -1.752870 15.473700 35.444801 -8.621290 0.844539 -180.000000 60.917999 -180.000000 -8.273770 -77.831398 -49.309700 3.664983 -4.013473 0.306133 0.000000 0.000000 7.062790 -8.298214 7.659677 0.865322 0.000000 0.000000 -38.885000 0.623795 2.555910 -20.706244 0.000000 0.000000 39.814999 14.819864 -2.948604 6.028170 0.000000 0.000000 -43.118099 
-18.292161 9.129416 43.994308 -173.142834 5.092502 -177.015311 -2.680855 -2.224921 -5.279521 15.781805 -1.916197 8.276751 0.000000 0.000000 0.000000 -14.382131 -7.817361 20.705605 16.251711 9.922508 -82.444771 -37.188400 5.846910 8.441540 -29.183001 1.846430 22.942101 -180.000000 -89.435898 180.000000 14.862100 23.693600 50.263699 25.115700 -1.868210 15.586100 35.519901 -9.427340 1.262870 -180.000000 64.238998 180.000000 -33.724701 -63.473701 6.299320 4.065438 -4.010037 -0.067899 0.000000 0.000000 7.072690 -8.346887 7.347993 0.859257 0.000000 0.000000 -38.858200 1.310518 2.078113 -20.036042 0.000000 0.000000 35.874100 15.651061 -4.323491 6.159545 0.000000 0.000000 -42.400000 
-18.281008 9.134235 43.967570 -172.897060 4.732273 -176.613724 -2.629136 -2.314565 -5.594409 15.945314 -1.982768 8.115742 0.000000 0.000000 0.000000 -14.169442 -8.091066 20.828439 16.208434 10.030510 -82.386015 -37.064201 5.802490 8.691840 -29.122200 1.847430 23.304100 180.000000 -89.239197 -180.000000 14.670800 24.054199 50.507198 24.980499 -1.962470 15.435600 35.693699 -10.053900 0.327953 -180.000000 64.987000 -180.000000 -16.810699 -60.799198 -10.526900 4.405335 -4.036322 -0.278238 0.000000 0.000000 6.949030 -8.389371 7.160947 0.829571 0.000000 0.000000 -38.753599 1.865983 1.890030 -19.198853 0.000000 0.000000 31.709499 16.648612 -5.478564 6.721826 0.000000 0.000000 -42.871000 
-18.266018 9.138117 43.937516 -172.667183 4.422536 -176.227070 -2.582356 -2.394798 -6.006055 16.113706 -2.062450 8.081741 0.000000 0.000000 0.000000 -14.005529 -8.367946 21.022277 16.161317 10.165367 -82.486454 -37.030499 5.807410 8.819890 -29.046600 1.872330 23.606400 180.000000 -89.067497 -180.000000 14.543700 24.353500 50.507900 24.962500 -2.008040 15.323900 35.791199 -10.526600 -3.078060 -180.000000 65.557999 -180.000000 27.790400 -52.481602 -68.850403 4.753073 -4.007000 -0.425922 0.000000 0.000000 6.791810 -8.454345 6.920613 0.787337 0.000000 0.000000 -38.577900 2.382184 2.078897 -18.289563 0.000000 0.000000 27.667299 17.707814 -6.445473 6.989458 0.000000 0.000000 -42.096701 
-18.247969 9.139652 43.904968 -172.541716 4.159409 -175.898122 -2.532130 -2.435236 -6.385571 16.097288 -2.101480 8.022391 0.000000 0.000000 0.000000 -13.782447 -8.658416 21.263728 16.080011 10.406521 -82.631477 -37.017899 5.876690 8.612380 -28.909700 2.051150 24.090401 -180.000000 -88.921799 180.000000 14.234700 24.546801 50.344398 24.948099 -2.046790 14.894000 35.801701 -10.987000 -4.694230 180.000000 66.828003 180.000000 43.567200 -38.369900 -96.491898 5.010608 -3.985021 -0.527623 0.000000 0.000000 6.693460 -8.579597 6.693161 0.695641 0.000000 0.000000 -38.543501 2.729736 2.486345 -17.325727 0.000000 0.000000 23.899099 18.673096 -6.755627 7.193386 0.000000 0.000000 -42.358900 
-18.226620 9.140509 43.869076 -172.440415 4.037405 -175.535670 -2.435616 -2.396788 -6.893580 15.982080 -2.081702 8.024891 0.000000 0.000000 0.000000 -13.463519 -9.112719 21.623200 15.793509 10.736436 -82.811203 -37.065102 5.937310 8.508980 -28.789801 2.207770 24.283199 180.000000 -88.847603 -180.000000 13.827200 24.825701 50.165401 24.955700 -1.996840 14.669100 35.787201 -11.148400 -6.029710 180.000000 68.302002 180.000000 51.303699 -26.546000 -114.844002 5.256291 -3.965903 -0.613911 0.000000 0.000000 6.604730 -8.757124 6.548017 0.553109 0.000000 0.000000 -38.462200 3.006365 3.235602 -16.561160 0.000000 0.000000 20.747801 18.311972 -6.840154 7.941335 0.000000 0.000000 -40.997200 
-18.201171 9.138839 43.832213 -172.420311 3.981480 -175.190157 -2.303971 -2.297919 -7.453578 15.695819 -2.025181 8.097712 0.000000 0.000000 0.000000 -13.169298 -9.464846 21.865095 15.650181 11.009835 -82.884988 -37.075199 5.964930 8.483620 -28.712799 2.350670 24.253099 -180.000000 -88.821999 180.000000 13.511600 25.147900 49.971500 25.072599 -1.949180 14.391800 35.792400 -11.336700 -6.605550 -180.000000 69.734001 -180.000000 53.414101 -17.410700 -125.788002 5.437334 -4.003023 -0.732736 0.000000 0.000000 6.647760 -8.937074 6.483394 0.329508 0.000000 0.000000 -38.358700 3.219531 4.151212 -15.944942 0.000000 0.000000 18.294201 17.102324 -7.287720 8.924426 0.000000 0.000000 -40.471001 
-18.172478 9.136921 43.793292 -172.419227 4.092216 -175.025716 -2.218341 -2.134984 -7.884388 15.498159 -1.902355 8.216550 0.000000 0.000000 0.000000 -12.916236 -9.794354 22.097000 15.475583 11.242598 -82.950896 -37.124199 6.004480 8.589960 -28.792700 2.419110 23.967899 -180.000000 -88.898102 180.000000 13.375100 25.594999 49.907398 25.162901 -1.799570 14.325500 35.855900 -11.380100 -6.998210 180.000000 70.885002 180.000000 62.590900 -19.727900 -100.571999 5.580343 -4.040086 -0.642988 0.000000 0.000000 6.738100 -9.145122 6.555836 0.064623 0.000000 0.000000 -38.369200 3.450850 5.201934 -15.421686 0.000000 0.000000 16.845800 14.382473 -8.421931 10.153554 0.000000 0.000000 -39.423700 
-18.142616 9.134696 43.757126 -172.387459 4.266886 -175.005122 -2.017350 -1.936416 -8.078584 15.260289 -1.757706 8.269078 0.000000 0.000000 0.000000 -12.786209 -9.965021 22.240472 15.348744 11.402799 -83.059926 -37.255100 6.089800 8.427530 -28.858101 2.650180 23.743500 180.000000 -89.038696 -180.000000 13.153500 25.543501 49.761002 25.206100 -1.719930 14.013700 35.920502 -11.450900 -6.717080 180.000000 71.580002 180.000000 63.611900 -18.065399 -99.485397 5.733732 -3.946877 -0.489180 0.000000 0.000000 6.986230 -9.404589 6.588641 -0.281056 0.000000 0.000000 -38.271799 3.791907 5.791440 -14.899095 0.000000 0.000000 16.209900 12.678938 -9.731528 10.592014 0.000000 0.000000 -38.400999 
-18.110286 9.132196 43.717553 -172.357939 4.440937 -175.026093 -1.781366 -1.744504 -8.284867 15.025864 -1.630925 8.335891 0.000000 0.000000 0.000000 -12.712777 -10.072220 22.373579 15.275087 11.533205 -83.196577 -37.346100 6.156270 8.399820 -29.126400 2.887260 23.277500 -180.000000 -89.196098 180.000000 13.091800 25.689301 49.897202 25.233299 -1.606960 13.938800 36.085201 -11.419500 -6.751060 -180.000000 71.988998 180.000000 64.178802 -17.484501 -98.738701 5.883607 -3.839290 -0.321493 0.000000 0.000000 7.335860 -9.649679 6.663289 -0.670026 0.000000 0.000000 -38.261000 4.211451 5.706335 -14.304886 0.000000 0.000000 15.750400 11.312534 -10.396752 10.468424 0.000000 0.000000 -38.747601 
-18.076605 9.130104 43.676087 -172.323695 4.608238 -175.070876 -1.454783 -1.558890 -8.501410 14.737691 -1.538900 8.432523 0.000000 0.000000 0.000000 -12.724923 -10.059319 22.484888 15.279598 11.626185 -83.361679 -37.387901 6.237200 8.375640 -29.562901 3.108840 22.699301 -180.000000 -89.392899 180.000000 13.175700 25.916700 50.360901 25.334600 -1.434220 14.047600 36.253399 -11.284800 -6.997840 180.000000 72.200996 180.000000 65.003502 -17.446100 -99.247902 6.035976 -3.681053 -0.176881 0.000000 0.000000 7.789560 -9.906812 6.716117 -1.066418 0.000000 0.000000 -38.334400 4.661481 5.075563 -13.647141 0.000000 0.000000 15.097500 10.561540 -10.288954 10.425964 0.000000 0.000000 -37.994301 
-18.039230 9.128649 43.632199 -172.240612 4.714591 -175.076594 -1.166657 -1.419329 -8.782366 14.657204 -1.482126 8.530886 0.000000 0.000000 0.000000 -12.784408 -10.017555 22.538770 15.258932 11.641340 -83.481483 -37.474602 6.295910 8.290620 -30.127100 3.419730 22.089800 180.000000 -89.521500 -180.000000 13.236300 26.286501 50.753101 25.394300 -1.323170 14.056500 36.390202 -11.167100 -7.204250 -180.000000 72.332001 -180.000000 65.876503 -17.568199 -99.618500 6.262161 -3.521213 -0.116268 0.000000 0.000000 8.341320 -10.112989 6.749750 -1.479255 0.000000 0.000000 -38.288300 5.103413 4.558338 -12.967127 0.000000 0.000000 14.300900 10.279653 -10.172063 10.435999 0.000000 0.000000 -37.640200 
-17.997237 9.128220 43.587317 -172.098472 4.816923 -175.083231 -0.928388 -1.329495 -9.047966 14.794055 -1.456136 8.598097 0.000000 0.000000 0.000000 -12.969001 -9.834348 22.526474 15.254859 11.542580 -83.557042 -37.521702 6.366230 8.289310 -30.939501 3.755260 21.264700 -180.000000 -89.624496 180.000000 13.618700 26.577200 50.835499 25.438601 -1.293730 14.078200 36.414101 -10.992600 -7.361010 -180.000000 72.412003 -180.000000 66.511703 -17.641500 -99.964600 6.584024 -3.335395 -0.102164 0.000000 0.000000 9.013640 -10.423860 6.693988 -1.924021 0.000000 0.000000 -38.304199 5.512532 4.636351 -12.364696 0.000000 0.000000 13.735500 10.104971 -10.196154 10.375385 0.000000 0.000000 -37.476200 
-17.952247 9.128560 43.544140 -171.937998 4.849318 -175.117989 -0.768709 -1.309661 -9.236834 15.089216 -1.470690 8.610998 0.000000 0.000000 0.000000 -13.157220 -9.605132 22.429864 15.235329 11.416250 -83.563477 -37.560501 6.391480 8.264910 -31.862700 4.191700 20.393499 180.000000 -89.653900 -180.000000 13.834400 26.885700 50.999500 25.455400 -1.298090 14.042800 36.389999 -10.780300 -7.537010 -180.000000 72.629997 180.000000 67.224800 -17.137800 -100.417000 6.949141 -3.145333 -0.185918 0.000000 0.000000 9.884510 -10.645420 6.632542 -2.342587 0.000000 0.000000 -38.404699 5.893015 4.933236 -11.903638 0.000000 0.000000 13.524700 10.093144 -10.245096 10.201665 0.000000 0.000000 -37.393299 
-17.903610 9.128187 43.501097 -171.804399 4.866189 -175.192291 -0.768771 -1.395273 -9.300172 15.618700 -1.521321 8.472918 0.000000 0.000000 0.000000 -13.418189 -9.304798 22.343828 15.173442 11.241922 -83.553366 -37.567600 6.503600 8.314830 -33.026100 4.643960 19.271000 180.000000 -89.602798 -180.000000 13.696200 27.403099 50.862301 25.357700 -1.336380 14.209100 36.357101 -10.435900 -7.759130 180.000000 72.954002 180.000000 67.760803 -16.204399 -100.324997 7.305333 -3.038996 -0.342586 0.000000 0.000000 10.951300 -11.089860 6.554436 -2.862022 0.000000 0.000000 -38.331699 6.277682 4.825503 -11.532133 0.000000 0.000000 13.570900 10.166045 -9.814337 10.005075 0.000000 0.000000 -37.237801 
